<?xml version="1.0" encoding="UTF-8" standalone="no"?>
<svg
   xmlns:dc="http://purl.org/dc/elements/1.1/"
   xmlns:cc="http://creativecommons.org/ns#"
   xmlns:rdf="http://www.w3.org/1999/02/22-rdf-syntax-ns#"
   xmlns:svg="http://www.w3.org/2000/svg"
   xmlns="http://www.w3.org/2000/svg"
   xmlns:sodipodi="http://sodipodi.sourceforge.net/DTD/sodipodi-0.dtd"
   xmlns:inkscape="http://www.inkscape.org/namespaces/inkscape"
   version="1.0"
   width="202.98279pt"
   height="42.737404pt"
   viewBox="0 0 202.98279 42.737404"
   preserveAspectRatio="xMidYMid meet"
   id="svg64"
   sodipodi:docname="foresight1.svg"
   inkscape:version="0.92.3 (2405546, 2018-03-11)">
  <metadata
     id="metadata70">
    <rdf:RDF>
      <cc:Work
         rdf:about="">
        <dc:format>image/svg+xml</dc:format>
        <dc:type
           rdf:resource="http://purl.org/dc/dcmitype/StillImage" />
        <dc:title></dc:title>
      </cc:Work>
    </rdf:RDF>
  </metadata>
  <defs
     id="defs68" />
  <sodipodi:namedview
     pagecolor="#ffffff"
     bordercolor="#666666"
     borderopacity="1"
     objecttolerance="10"
     gridtolerance="10"
     guidetolerance="10"
     inkscape:pageopacity="0"
     inkscape:pageshadow="2"
     inkscape:window-width="2560"
     inkscape:window-height="1377"
     id="namedview66"
     showgrid="false"
     fit-margin-top="0"
     fit-margin-left="0"
     fit-margin-right="0"
     fit-margin-bottom="0"
     inkscape:snap-bbox="true"
     inkscape:snap-midpoints="true"
     inkscape:snap-object-midpoints="true"
     inkscape:snap-page="true"
     inkscape:snap-bbox-midpoints="true"
     inkscape:snap-bbox-edge-midpoints="true"
     inkscape:bbox-nodes="true"
     inkscape:bbox-paths="true"
     inkscape:object-paths="true"
     inkscape:snap-smooth-nodes="true"
     inkscape:snap-center="true"
     inkscape:zoom="3.6457185"
     inkscape:cx="109.66686"
     inkscape:cy="84.94153"
     inkscape:window-x="-8"
     inkscape:window-y="-8"
     inkscape:window-maximized="1"
     inkscape:current-layer="layer5" />
  <text
     xml:space="preserve"
     style="font-style:normal;font-variant:normal;font-weight:normal;font-stretch:normal;font-size:30px;line-height:1.25;font-family:'BankGothic Lt BT';-inkscape-font-specification:'BankGothic Lt BT';letter-spacing:0px;word-spacing:0px;fill:#ffffff;fill-opacity:1;stroke:none;stroke-width:0.75"
     x="219.81331"
     y="-79.872795"
     id="text74"><tspan
       sodipodi:role="line"
       id="tspan72"
       x="219.81331"
       y="-53.329823"
       style="font-style:normal;font-variant:normal;font-weight:normal;font-stretch:normal;font-family:'BankGothic Lt BT';-inkscape-font-specification:'BankGothic Lt BT';fill:#ffffff;stroke-width:0.75" /></text>
  <text
     xml:space="preserve"
     style="font-style:normal;font-variant:normal;font-weight:normal;font-stretch:normal;font-size:30px;line-height:1.25;font-family:'Brush Script MT';-inkscape-font-specification:'Brush Script MT';letter-spacing:0px;word-spacing:0px;fill:#ffffff;fill-opacity:1;stroke:none;stroke-width:0.75"
     x="244.69728"
     y="-96.789452"
     id="text78"><tspan
       sodipodi:role="line"
       id="tspan76"
       x="244.69728"
       y="-71.788734"
       style="fill:#ffffff;stroke-width:0.75" /></text>
  <g
     inkscape:groupmode="layer"
     id="layer4"
     inkscape:label="Layer 1"
     style="display:inline"
     transform="translate(-111.98671,-310.14992)" />
  <g
     inkscape:groupmode="layer"
     id="layer5"
     inkscape:label="Layer 2"
     transform="translate(-111.98671,-310.14992)">
    <text
       xml:space="preserve"
       style="font-style:normal;font-variant:normal;font-weight:normal;font-stretch:normal;font-size:32.95483398px;line-height:1.25;font-family:'BankGothic Md BT';-inkscape-font-specification:'BankGothic Md BT';letter-spacing:0px;word-spacing:0px;fill:#000000;fill-opacity:1;stroke:none;stroke-width:0.82387084"
       x="164.54755"
       y="310.09842"
       id="text99"
       transform="scale(0.91033691,1.0984944)"><tspan
         sodipodi:role="line"
         id="tspan97"
         x="164.54755"
         y="310.09842"
         style="stroke-width:0.82387084">Foresight</tspan></text>
    <g
       id="g283"
       transform="matrix(0.04354966,0,0,0.03289537,118.55938,318.00021)">
      <g
         id="g227">
	<path
   id="path225"
   d="m 257.83933,98.10994 c -133.07051,0 -248.411233,67.24475 -305.090053,165.47207 56.67882,98.22732 172.019543,165.47207 305.090053,165.47207 133.06694,0 248.40885,-67.24475 305.09005,-165.47207 C 506.25056,165.35469 390.90627,98.10994 257.83933,98.10994 Z m 150.42966,87.75398 c 35.85046,19.8432 66.22837,46.42215 89.04696,77.71809 -22.81739,31.29594 -53.19888,57.87489 -89.04696,77.7181 -45.04488,24.93353 -97.06393,38.11235 -150.42966,38.11235 -53.36692,0 -105.38478,-13.17882 -150.42965,-38.11235 -35.848084,-19.84424 -66.225999,-46.42319 -89.04459,-77.7181 22.817399,-31.29697 53.196506,-57.87592 89.04459,-77.71809 2.33465,-1.29275 4.69314,-2.54517 7.06593,-3.77483 -5.93377,14.13131 -9.1813,29.38267 -9.1813,45.29591 0,73.10866 68.29726,132.37765 152.54502,132.37765 84.24656,0 152.54503,-59.26899 152.54503,-132.37765 0,-15.91324 -3.24754,-31.1646 -9.18012,-45.29695 2.36922,1.22967 4.73009,2.48312 7.06475,3.77587 z m -150.42966,24.97387 c 0,27.41665 -25.61088,49.64162 -57.20438,49.64162 -31.59351,0 -57.20439,-22.22497 -57.20439,-49.64162 0,-27.41665 25.61088,-49.64162 57.20439,-49.64162 31.5935,0 57.20438,22.22497 57.20438,49.64162 z"
   inkscape:connector-curvature="0"
   style="stroke-width:1.11018765" />

</g>
      <g
         id="g229">
</g>
      <g
         id="g231">
</g>
      <g
         id="g233">
</g>
      <g
         id="g235">
</g>
      <g
         id="g237">
</g>
      <g
         id="g239">
</g>
      <g
         id="g241">
</g>
      <g
         id="g243">
</g>
      <g
         id="g245">
</g>
      <g
         id="g247">
</g>
      <g
         id="g249">
</g>
      <g
         id="g251">
</g>
      <g
         id="g253">
</g>
      <g
         id="g255">
</g>
      <g
         id="g257">
</g>
    </g>
  </g>
  <g
     id="g223"
     transform="matrix(1.5051883,0,0,1.4132973,0.28942799,0.29057971)">
    <g
       id="g167">
	<path
   id="path165"
   d="m 20.000713,3.2541459 c -4.613,-4.613 -12.1209999,-4.613 -16.7339999,0 -4.612,4.614 -4.612,12.1210001 0,16.7350001 4.108,4.107 10.5059999,4.547 15.1159999,1.34 0.097,0.459 0.319,0.897 0.676,1.254 l 6.718,6.718 c 0.979,0.977 2.561,0.977 3.535,0 0.978,-0.978 0.978,-2.56 0,-3.535 l -6.718,-6.72 c -0.355,-0.354 -0.794,-0.577 -1.253,-0.674 3.209,-4.611 2.769,-11.0080001 -1.34,-15.1180001 z m -2.121,14.6140001 c -3.444,3.444 -9.0489999,3.444 -12.4919999,0 -3.442,-3.444 -3.442,-9.0480001 0,-12.4920001 3.443,-3.443 9.0479999,-3.443 12.4919999,0 3.444,3.444 3.444,9.0480001 0,12.4920001 z"
   inkscape:connector-curvature="0" />

</g>
    <g
       id="g169">
</g>
    <g
       id="g171">
</g>
    <g
       id="g173">
</g>
    <g
       id="g175">
</g>
    <g
       id="g177">
</g>
    <g
       id="g179">
</g>
    <g
       id="g181">
</g>
    <g
       id="g183">
</g>
    <g
       id="g185">
</g>
    <g
       id="g187">
</g>
    <g
       id="g189">
</g>
    <g
       id="g191">
</g>
    <g
       id="g193">
</g>
    <g
       id="g195">
</g>
    <g
       id="g197">
</g>
  </g>
</svg>
