<?xml version="1.0" encoding="UTF-8" standalone="no"?>
<!-- Created with Inkscape (http://www.inkscape.org/) -->

<svg
   xmlns:dc="http://purl.org/dc/elements/1.1/"
   xmlns:cc="http://creativecommons.org/ns#"
   xmlns:rdf="http://www.w3.org/1999/02/22-rdf-syntax-ns#"
   xmlns:svg="http://www.w3.org/2000/svg"
   xmlns="http://www.w3.org/2000/svg"
   xmlns:sodipodi="http://sodipodi.sourceforge.net/DTD/sodipodi-0.dtd"
   xmlns:inkscape="http://www.inkscape.org/namespaces/inkscape"
   width="72.797997mm"
   height="17.375319mm"
   viewBox="0 0 72.797997 17.375319"
   version="1.1"
   id="svg8"
   inkscape:version="0.92.3 (2405546, 2018-03-11)"
   sodipodi:docname="foresightloggasvart.svg">
  <defs
     id="defs2" />
  <sodipodi:namedview
     id="base"
     pagecolor="#ffffff"
     bordercolor="#666666"
     borderopacity="1.0"
     inkscape:pageopacity="0.0"
     inkscape:pageshadow="2"
     inkscape:zoom="1.979899"
     inkscape:cx="85.903165"
     inkscape:cy="-3.0944046"
     inkscape:document-units="mm"
     inkscape:current-layer="layer2"
     showgrid="false"
     inkscape:snap-bbox="true"
     inkscape:bbox-paths="true"
     inkscape:bbox-nodes="true"
     inkscape:snap-bbox-edge-midpoints="true"
     inkscape:snap-bbox-midpoints="true"
     fit-margin-top="0"
     fit-margin-left="0"
     fit-margin-right="0"
     fit-margin-bottom="0"
     inkscape:window-width="1366"
     inkscape:window-height="705"
     inkscape:window-x="-8"
     inkscape:window-y="-8"
     inkscape:window-maximized="1" />
  <metadata
     id="metadata5">
    <rdf:RDF>
      <cc:Work
         rdf:about="">
        <dc:format>image/svg+xml</dc:format>
        <dc:type
           rdf:resource="http://purl.org/dc/dcmitype/StillImage" />
        <dc:title></dc:title>
      </cc:Work>
    </rdf:RDF>
  </metadata>
  <g
     inkscape:label="Layer 1"
     inkscape:groupmode="layer"
     id="layer1"
     transform="translate(-0.03867602,-0.02998349)">
    <g
       id="g870"
       transform="matrix(0.33018798,0,0,0.33026766,-0.28622895,0.02998336)">
      <path
         id="path815"
         d="M 46.039388,41.461613 34.760983,30.193854 C 37.660859,26.882487 39.249718,22.716109 39.249718,18.378729 39.249718,8.2448578 30.666551,4.0613061e-7 20.116859,4.0613061e-7 9.567167,4.0613061e-7 0.984,8.2448578 0.984,18.378729 c 0,10.133871 8.583167,18.378728 19.132859,18.378728 3.960502,0 7.734666,-1.147472 10.961465,-3.32575 L 42.44241,44.784966 c 0.474994,0.473852 1.113865,0.735149 1.798489,0.735149 0.648022,0 1.262769,-0.237325 1.729444,-0.668825 0.991581,-0.91654 1.023192,-2.436381 0.06905,-3.389677 z M 20.116859,4.7944513 c 7.797888,0 14.141679,6.0937467 14.141679,13.5842777 0,7.49053 -6.343791,13.584277 -14.141679,13.584277 -7.797888,0 -14.1416783,-6.093747 -14.1416783,-13.584277 0,-7.490531 6.3437903,-13.5842777 14.1416783,-13.5842777 z"
         inkscape:connector-curvature="0"
         style="stroke-width:0.81530446" />
      <g
         id="g817">
</g>
      <g
         id="g819">
</g>
      <g
         id="g821">
</g>
      <g
         id="g823">
</g>
      <g
         id="g825">
</g>
      <g
         id="g827">
</g>
      <g
         id="g829">
</g>
      <g
         id="g831">
</g>
      <g
         id="g833">
</g>
      <g
         id="g835">
</g>
      <g
         id="g837">
</g>
      <g
         id="g839">
</g>
      <g
         id="g841">
</g>
      <g
         id="g843">
</g>
      <g
         id="g845">
</g>
    </g>
  </g>
  <g
     inkscape:groupmode="layer"
     id="layer2"
     inkscape:label="Layer 2"
     transform="translate(-0.03867602,-0.02998349)">
    <text
       xml:space="preserve"
       style="font-style:normal;font-variant:normal;font-weight:normal;font-stretch:normal;font-size:12.66838646px;line-height:1.25;font-family:'BankGothic Lt BT';-inkscape-font-specification:'BankGothic Lt BT';letter-spacing:0px;word-spacing:0px;fill:#000000;fill-opacity:1;stroke:none;stroke-width:0.31670967"
       x="15.394721"
       y="8.6174717"
       id="text875"
       transform="scale(0.88621709,1.1283917)"><tspan
         sodipodi:role="line"
         id="tspan873"
         x="15.394721"
         y="8.6174717"
         style="stroke-width:0.31670967">Foresight</tspan></text>
  </g>
  <g
     inkscape:groupmode="layer"
     id="layer3"
     inkscape:label="Layer 3"
     transform="translate(-0.03867602,-0.02998349)">
    <text
       xml:space="preserve"
       style="font-style:normal;font-variant:normal;font-weight:normal;font-stretch:normal;font-size:11.87208271px;line-height:1.25;font-family:'BankGothic Lt BT';-inkscape-font-specification:'BankGothic Lt BT';letter-spacing:0px;word-spacing:0px;fill:#000000;fill-opacity:1;stroke:none;stroke-width:0.29680207"
       x="46.133526"
       y="16.28841"
       id="text880"
       transform="scale(0.93583039,1.0685697)"><tspan
         sodipodi:role="line"
         id="tspan878"
         x="46.133526"
         y="16.28841"
         style="stroke-width:0.29680207">Bank</tspan></text>
    <g
       id="g940"
       transform="matrix(0.01596947,0,0,0.01382364,2.2448014,2.5043036)">
      <g
         id="g884">
	<path
   id="path882"
   d="M 256,96 C 144.341,96 47.559,161.021 0,256 47.559,350.979 144.341,416 256,416 367.656,416 464.439,350.979 512,256 464.441,161.021 367.656,96 256,96 Z m 126.225,84.852 c 30.082,19.187 55.572,44.887 74.719,75.148 -19.146,30.261 -44.639,55.961 -74.719,75.148 C 344.428,355.257 300.779,368 256,368 211.22,368 167.572,355.257 129.775,331.148 99.695,311.96 74.205,286.26 55.058,256 c 19.146,-30.262 44.637,-55.962 74.717,-75.148 1.959,-1.25 3.938,-2.461 5.929,-3.65 C 130.725,190.866 128,205.613 128,221 c 0,70.691 57.308,128 128,128 70.691,0 128,-57.309 128,-128 0,-15.387 -2.725,-30.134 -7.703,-43.799 1.988,1.189 3.969,2.401 5.928,3.651 z M 256,205 c 0,26.51 -21.49,48 -48,48 -26.51,0 -48,-21.49 -48,-48 0,-26.51 21.49,-48 48,-48 26.51,0 48,21.49 48,48 z"
   inkscape:connector-curvature="0" />

</g>
      <g
         id="g886">
</g>
      <g
         id="g888">
</g>
      <g
         id="g890">
</g>
      <g
         id="g892">
</g>
      <g
         id="g894">
</g>
      <g
         id="g896">
</g>
      <g
         id="g898">
</g>
      <g
         id="g900">
</g>
      <g
         id="g902">
</g>
      <g
         id="g904">
</g>
      <g
         id="g906">
</g>
      <g
         id="g908">
</g>
      <g
         id="g910">
</g>
      <g
         id="g912">
</g>
      <g
         id="g914">
</g>
    </g>
  </g>
</svg>
